# xmcd
# Track frame offsets:
# 150
# 15432
# 28942
# 40602
# 52600
# 65835
# 80170
# 97830
# 110652
# 124942
# 138947
# 150410
#
# Disc length: 2202 seconds
# Revision: 0
# Processed by: cddbd v1.4PL0 Copyright (c) Steve Scherf et al.
# Submitted via: VisiTrax 2.9.5.180 - For more info visit www.synapsa.com
#
DISCID=9208980c
DTITLE=Tom Laverty - Living hard an easy
DYEAR=1900
DGENRE=Irsk
TTITLE0=Living hard an easy
TTITLE1=How do I mend this broken heart
TTITLE2=She thinks I still care
TTITLE3=Working man blues
TTITLE4=6.55 to Austin
TTITLE5=Tonight the bottle let me down
TTITLE6=Show me how you feel
TTITLE7=I'll be waiting here for you
TTITLE8=You win again
TTITLE9=Girl from yeaterday
TTITLE10=Excuse me (I think I've got a heartache)
TTITLE11=Tonight (we just maight fall in love again)
EXTD=
EXTT0=
EXTT1=
EXTT2=
EXTT3=
EXTT4=
EXTT5=
EXTT6=
EXTT7=
EXTT8=
EXTT9=
EXTT10=
EXTT11=
PLAYORDER=
